/* XPM */
static char *_3c7aa1588a443a0eb4df8bd972bd774PbNnARPhZGmVOCuN[] = {
/* columns rows colors chars-per-pixel */
"32 32 204 2 ",
"   c None",
".  c black",
"X  c #0C0A01",
"o  c #0C0D0F",
"O  c #0E0E0E",
"+  c gray6",
"@  c #1A1500",
"#  c #191403",
"$  c #1D1908",
"%  c #1C190E",
"&  c #101010",
"*  c gray8",
"=  c gray9",
"-  c #2F2911",
";  c #302A12",
":  c #232323",
">  c #232425",
",  c #252525",
"<  c #272727",
"1  c #282828",
"2  c #2A2A2A",
"3  c gray17",
"4  c #353121",
"5  c #313131",
"6  c #323236",
"7  c #333435",
"8  c #353639",
"9  c #35363A",
"0  c #3A3A3A",
"q  c #38383C",
"w  c #493A00",
"e  c #493B00",
"r  c #4A3B00",
"t  c #4C3E05",
"y  c #4D3F07",
"u  c #524205",
"i  c #504108",
"p  c #504208",
"a  c #564A17",
"s  c #574A17",
"d  c #5A4E1D",
"f  c #6F5A05",
"g  c #6E5A08",
"h  c #6F5A08",
"j  c #705C09",
"k  c #77651D",
"l  c #4D4523",
"z  c #3E3E40",
"x  c #3F4042",
"c  c #414143",
"v  c gray26",
"b  c gray27",
"n  c #5A574C",
"m  c #4E4E51",
"M  c #5A5851",
"N  c #5D5B54",
"B  c gray37",
"V  c #5F5F5F",
"C  c #605E56",
"Z  c #7C734F",
"A  c #6F6A54",
"S  c #63615A",
"D  c #676458",
"F  c #676663",
"G  c gray40",
"H  c #676767",
"J  c #6D6D6D",
"K  c gray43",
"L  c #7C7C7B",
"P  c #7D7E7F",
"I  c #816B12",
"U  c #A88600",
"Y  c #A88700",
"T  c #A98700",
"R  c #A88702",
"E  c #A88805",
"W  c #AC8B06",
"Q  c #B69100",
"!  c #B69200",
"~  c #B79200",
"^  c #B99400",
"/  c #A98C16",
"(  c #AD9431",
")  c #CAA200",
"_  c #CEA500",
"`  c #CFA500",
"'  c #D1A800",
"]  c #D9AD02",
"[  c #D9AE02",
"{  c #DAB316",
"}  c #EABC00",
"|  c #DAB621",
" . c #DBB621",
".. c #DDB823",
"X. c #DBB82B",
"o. c #F6C500",
"O. c #F7C500",
"+. c #F7C600",
"@. c #F7C602",
"#. c #F6C603",
"$. c #F7C703",
"%. c #F7C704",
"&. c #F8C600",
"*. c #F8C700",
"=. c #F8C702",
"-. c #FBC900",
";. c #FCCA00",
":. c #F6C708",
">. c #F6C70A",
",. c #F6C80F",
"<. c #F8C808",
"1. c #F8C809",
"2. c #F8CA0F",
"3. c #F8CC17",
"4. c #F5CA1F",
"5. c #F8CD1F",
"6. c #F9CE1F",
"7. c #FACE1E",
"8. c #F8CE22",
"9. c #F8CE23",
"0. c #F9CF23",
"q. c #F8CF26",
"w. c #FAD12C",
"e. c #F8D02F",
"r. c #FAD12F",
"t. c #A39044",
"y. c #89867B",
"u. c #A29768",
"i. c #C9B668",
"p. c #CDB968",
"a. c #CEBA69",
"s. c #E5C649",
"d. c #FBD747",
"f. c #FAD749",
"g. c #FBD952",
"h. c #FCDB58",
"j. c #FBDC5C",
"k. c #D2C17A",
"l. c #FADF6F",
"z. c #FADF70",
"x. c #FBE070",
"c. c #FBE176",
"v. c #FCE37C",
"b. c #838383",
"n. c #828284",
"m. c #888888",
"M. c #8B8B8B",
"N. c gray55",
"B. c #979797",
"V. c #969699",
"C. c #999A9C",
"Z. c #9FA0A2",
"A. c gray63",
"S. c #A4A4A5",
"D. c #A4A5A7",
"F. c gray65",
"G. c #A5A6A9",
"H. c #A6A6A9",
"J. c gray66",
"K. c #ABACAF",
"L. c #AEAEAE",
"P. c #ACADB0",
"I. c #ADADB0",
"U. c #ADAEB0",
"Y. c #ADAEB1",
"T. c #AFB0B1",
"R. c gray71",
"E. c gray72",
"W. c #B9B9B9",
"Q. c #BABABB",
"!. c #BCBCBC",
"~. c gray",
"^. c #BEBEBF",
"/. c #E2D398",
"(. c #DED3A5",
"). c #FCEBA4",
"_. c #FCEBA5",
"`. c #FDEBA5",
"'. c #C6C6C7",
"]. c #C8C8C9",
"[. c #CACACA",
"{. c #CBCBCB",
"}. c gray80",
"|. c LightGray",
" X c gray83",
".X c #D7D7D7",
"XX c gray85",
"oX c #DBDBDC",
"OX c #E5DEC2",
"+X c gray88",
"@X c #E1E1E1",
"#X c #E4E4E4",
"$X c gray90",
"%X c gray91",
"&X c #E9E9E9",
"*X c #EEEEEE",
"=X c gray94",
"-X c #F1F1F1",
";X c #F9F9F9",
":X c gray98",
">X c #FBFBFB",
",X c #FDFDFD",
"<X c #FEFEFE",
"1X c white",
/* pixels */
"                                                                ",
"                                                                ",
"                                                                ",
"                                                                ",
"                          H M.v                                 ",
"                  b J H 0 F.>X X3     B B                       ",
"                v !.1X-X!.>X1X-XN.= J +XW.O                     ",
"              , W.1X1X1X1X>X>X>X&XR.XX-XA.O                     ",
"              3 {.!.W.#X-X*X{.I.I.I.K.V.5                       ",
"              J F.; - T.&X#XF u j h h t X                       ",
"            O L.I.i i F.+XoXS ~ ;.&.+.U @                       ",
"            O J.H.i i Z. X|.C ~ -.8.8.U $ > , :                 ",
"              M.C.i f y.{.}.N ~ -.1.>.U 4 P M.B.:               ",
"              3 m t ) d K.'.M ~ -.+.+.U @ O = M.,               ",
"                . w _ a H.!.n ^ -.+.+.U @   & b.,               ",
"                  w _ a H.n.I } &.+.w./ @   & b.,               ",
"                  w ' k L D W -.+.+.>.E @   & b.,               ",
"                  w | s.Z t.4.+.2.5.+.U @   & b.,               ",
"                  w | h.`.x.5.+.2.5.+.U @   & b.,               ",
"                  w [ f.`.z.5.+.+.+.+.U @   & b.,               ",
"                  w { g.`.z.5.+.+.+.+.U @   & b.,               ",
"                  w X.j.`.z.5.+.+.+.+.U @   & b.,               ",
"                  w [ f.`.z.5.1.w.+.+.U @ O = M.,               ",
"                  w [ f.`.l.5.%.3.+.+.U 4 P M.B.:               ",
"                  w [ f.`.c.q.+.+.2.,.U $ > , :                 ",
"                  l ..d.`.v.w.&.&.5.8.( %                       ",
"                  7 u./.OX(.k.p.p.p.i.A                         ",
"                    6 x v z q 9 9 9 9                           ",
"                                                                ",
"                                                                ",
"                                                                ",
"                                                                "
};
