/* XPM */
static char *d8c98a0ae5b64fc4b75e0108098fb878sDSN2NHqwr2ocgf9[] = {
/* columns rows colors chars-per-pixel */
"32 32 256 2 ",
"   c None",
".  c #040301",
"X  c #060301",
"o  c #060401",
"O  c #070401",
"+  c #060402",
"@  c #060403",
"#  c #040404",
"$  c #040504",
"%  c #060504",
"&  c #060606",
"*  c #070606",
"=  c #070707",
"-  c #080707",
";  c #070708",
":  c #080708",
">  c #090909",
",  c #0A0A09",
"<  c gray4",
"1  c #0A0B0A",
"2  c #0B0B0A",
"3  c #0A0A0B",
"4  c #0F0E0E",
"5  c #0E0F0E",
"6  c #0E0E0F",
"7  c #151514",
"8  c #171616",
"9  c gray9",
"0  c #181817",
"q  c #181818",
"w  c #181819",
"e  c #181919",
"r  c #191919",
"t  c #1D1C1C",
"y  c #1D1D1D",
"u  c #37210D",
"i  c #212222",
"p  c #222222",
"a  c #232322",
"s  c #232323",
"d  c #252021",
"f  c #242323",
"g  c #242324",
"h  c gray14",
"j  c #252525",
"k  c #252626",
"l  c gray15",
"z  c #282727",
"x  c #282628",
"c  c #272828",
"v  c #292829",
"b  c #29292A",
"n  c #2B292B",
"m  c #292B2B",
"M  c #2A2A2A",
"N  c gray17",
"B  c #2C2A2D",
"V  c #2C2C2C",
"C  c #2D2D2C",
"Z  c #2C2D2D",
"A  c #2E2E2D",
"S  c #2F2D2F",
"D  c gray18",
"F  c #2E2F2E",
"G  c #3C2423",
"H  c #2F302F",
"J  c #302F30",
"K  c gray19",
"L  c #313131",
"P  c #313231",
"I  c #323231",
"U  c gray20",
"Y  c #363635",
"T  c #363736",
"R  c gray22",
"E  c #383839",
"W  c #383939",
"Q  c #3A3A3A",
"!  c #3C3B3C",
"~  c #3D3C3E",
"^  c #3F3F3F",
"/  c #47290E",
"(  c #492B10",
")  c #4A2B10",
"_  c #4B2B10",
"`  c #482B12",
"'  c #492B12",
"]  c #4B2C11",
"[  c #4A2D11",
"{  c #4B2C12",
"}  c #4A2D12",
"|  c #4B2D12",
" . c #5F3714",
".. c #553618",
"X. c #5A3B1E",
"o. c #5B3B1E",
"O. c #5B3C1E",
"+. c #603814",
"@. c #613814",
"#. c #643A15",
"$. c #653B16",
"%. c #432525",
"&. c #4D2929",
"*. c #433324",
"=. c #433325",
"-. c #483422",
";. c #483522",
":. c #4C3622",
">. c #4C3623",
",. c #553F2A",
"<. c #543F2B",
"1. c #463837",
"2. c #602C2D",
"3. c #6B2F2E",
"4. c #7C2E2E",
"5. c #693C3C",
"6. c #764C14",
"7. c #774C14",
"8. c #784D14",
"9. c #55402C",
"0. c #56402C",
"q. c #414141",
"w. c #414241",
"e. c #424142",
"r. c #434242",
"t. c #444343",
"y. c #434444",
"u. c #464545",
"i. c gray28",
"p. c #484848",
"a. c #4A494A",
"s. c gray29",
"d. c #4B4B4B",
"f. c gray30",
"g. c #4F4E4E",
"h. c #4E4F4E",
"j. c #4F4E4F",
"k. c gray31",
"l. c #5A4F46",
"z. c #5C5248",
"x. c #5D5249",
"c. c #504F50",
"v. c #515051",
"b. c #515151",
"n. c #525251",
"m. c gray32",
"M. c #535352",
"N. c #545353",
"B. c #535354",
"V. c #565656",
"C. c #575857",
"Z. c #585858",
"A. c gray35",
"S. c #5B5B5B",
"D. c gray37",
"F. c #695F56",
"G. c #6C6157",
"H. c gray39",
"J. c #646363",
"K. c #646464",
"L. c #656565",
"P. c gray40",
"I. c #676666",
"U. c #666766",
"Y. c #676766",
"T. c #676667",
"R. c #676767",
"E. c #686768",
"W. c #696868",
"Q. c #686968",
"!. c #696968",
"~. c #686969",
"^. c DimGray",
"/. c #6A6969",
"(. c #6A6A69",
"). c #6B6A69",
"_. c #6A6A6A",
"`. c gray42",
"'. c #6B6B6C",
"]. c #6C6B6C",
"[. c #6B6C6C",
"{. c #6C6C6C",
"}. c #6D6D6C",
"|. c #6D6C6D",
" X c #6D6D6D",
".X c #6E6E6D",
"XX c gray43",
"oX c #6E6F6E",
"OX c #6F6F6E",
"+X c #6F6F6F",
"@X c #736860",
"#X c gray44",
"$X c #707170",
"%X c #717171",
"&X c #727272",
"*X c #737372",
"=X c gray45",
"-X c #737473",
";X c #747474",
":X c #757474",
">X c #747575",
",X c gray46",
"<X c #767574",
"1X c #777675",
"2X c #757676",
"3X c #767676",
"4X c #777676",
"5X c #767776",
"6X c #777677",
"7X c #777777",
"8X c #787777",
"9X c #777878",
"0X c #797A79",
"qX c #79797A",
"wX c gray48",
"eX c #7A7B7A",
"rX c #7B7B7A",
"tX c #7A7B7B",
"yX c #7B7B7B",
"uX c #7C7C7C",
"iX c #7D7C7C",
"pX c #7C7D7D",
"aX c gray49",
"sX c #7E7E7D",
"dX c #7E7E7E",
"fX c #7E7F7E",
"gX c #7E7F7F",
"hX c gray50",
"jX c #83302F",
"kX c #953B3B",
"lX c #A13939",
"zX c #AF3D3D",
"xX c #B53B3A",
"cX c #B73C3A",
"vX c #875D11",
"bX c #895E11",
"nX c #807F7F",
"mX c #D24444",
"MX c #EF4949",
"NX c #F14949",
"BX c #FE4D4C",
"VX c #FF4D4D",
"CX c #7F8080",
"ZX c #808080",
"AX c #818180",
"SX c #818081",
"DX c #808181",
"FX c #818181",
"GX c #838283",
"HX c #848383",
"JX c #848484",
"KX c #858484",
"LX c gray52",
"PX c #888888",
"IX c gray58",
"UX c #A4A4A4",
/* pixels */
"                                                                ",
"                                                                ",
"                          l D                                   ",
"                          k.UX|.                                ",
"                          m PXIXY                               ",
"                        &.2.l D                                 ",
"                        zXmX3.                                  ",
"                      jXMXBXcX%.                                ",
"                    f 4.NXBXxXG                                 ",
"                    i 1.kXlX5.m                                 ",
"                    g u.d.y.d.J     z m                         ",
"                    f b.GX>XA.L   E L.&Xk.                      ",
"                    i u.E.&XA.D   Y ^.>Xd.i                     ",
"                    l d.L.hXL.L   E &XhXk.f                     ",
"                    6 y m D l 7 6 w c m y 6                     ",
"                    & d.|.|.].k.H.|.|.|.d.&                     ",
"                    & b.&X|.L.^ ! L.8X|.k.&                     ",
"                    & C.>X|.c.B x d.hX^.b.-                     ",
"                    & C.GXGXb.D m d.|.>XA.&                     ",
"                    & q.^.|.b.t.q.k.L.J.q.&                     ",
"          > 7 &   > w w l ^ 7 i i 7 ^ l w w >   & 0 >           ",
"          D |.k.q.V.L.L.d.E N.>X>XB.E d.L.L.V.q.u.D.D           ",
"          H >XqXqXqX^.&XqX|.^.>X>X^.|.hX&X'.qXqX>XL.H           ",
"          L hX^.hXJXJXhX^.F.>.;.;.>.G.JXJXJXHXJXJXhXL           ",
"          D &X&X&X|.>X&Xl.X.@._ _ @.O.x.^.>X>X>X|.&XD           ",
"          L qXGX>X[.nX@XX.#.#.{ { #.#...x.hXGXqX^.qXL           ",
"          L qXGXGXCXhX9. .bXvX_ _ vXbX .9.hX|.>XGXqXL           ",
"          D &X>X&X9X>X<.@.8.7.{ { 7.8.@.<.>X|.|.8X-XD           ",
"          m ^.L.b.^.^.=./ _ _ u u _ { / =.^.^.b.L.^.m           ",
"          & > > ; > > & X O O X X O O X O > > : > > &           ",
"                                                                ",
"                                                                "
};
