/* XPM */
static char *e190b59b19994a96b00e10468333684fjVvXnw2Ul5WBwUPG[] = {
/* columns rows colors chars-per-pixel */
"34 32 174 2 ",
"   c None",
".  c #29362E",
"X  c #293730",
"o  c #793939",
"O  c #39492F",
"+  c #374C34",
"@  c #3C633B",
"#  c #25773B",
"$  c #29793A",
"%  c #327F3C",
"&  c #4E6638",
"*  c #48713F",
"=  c #537039",
"-  c #6F3E40",
";  c #21444C",
":  c #32524D",
">  c #254958",
",  c #2A595A",
"<  c #2C6D4B",
"1  c #2E655D",
"2  c #397555",
"3  c #1A4B60",
"4  c #1F5065",
"5  c #1F5D71",
"6  c #214E61",
"7  c #20576A",
"8  c #225D6A",
"9  c #285661",
"0  c #1E6275",
"q  c #1E6679",
"w  c #1E6B7D",
"e  c #286269",
"r  c #356869",
"t  c #236374",
"y  c #246A73",
"u  c #22677A",
"i  c #246D7D",
"p  c #296677",
"a  c #376878",
"s  c #3C7577",
"d  c #68474B",
"f  c #635459",
"g  c #477F48",
"h  c #597F4B",
"j  c #427953",
"k  c #455B65",
"l  c #4B5B65",
"z  c #5D5F65",
"x  c #4F626B",
"c  c #4A7D64",
"v  c #466371",
"b  c #486F79",
"n  c #49737E",
"m  c #626164",
"M  c #776466",
"N  c #892926",
"B  c #972C28",
"V  c #8D3633",
"C  c #993E3E",
"Z  c #A22824",
"A  c #B7322F",
"S  c #B33330",
"D  c #CA2C27",
"F  c #DB322D",
"G  c #35813A",
"H  c #3C863A",
"J  c #3F883A",
"K  c #438A3B",
"L  c #4A8E3B",
"P  c #4D913A",
"I  c #52943A",
"U  c #5A963D",
"Y  c #5E9C3A",
"T  c #609E3B",
"R  c #64A13E",
"E  c #3C8742",
"W  c #368340",
"Q  c #2F8471",
"!  c #408943",
"~  c #548A4D",
"^  c #5A8343",
"/  c #4E9347",
"(  c #5C9E4B",
")  c #559844",
"_  c #58895A",
"`  c #628948",
"'  c #619B43",
"]  c #6A9E55",
"[  c #6B9E59",
"{  c #66A340",
"}  c #69A542",
"|  c #6EA945",
" . c #65A54C",
".. c #6DAA4F",
"X. c #69A74F",
"o. c #70AB47",
"O. c #76A34D",
"+. c #73AC4A",
"@. c #77B04B",
"#. c #7BB34E",
"$. c #79AD58",
"%. c #7DB451",
"&. c #7CB35B",
"*. c #7AB453",
"=. c #548760",
"-. c #478674",
";. c #50897C",
":. c #519A74",
">. c #82B753",
",. c #84BA54",
"<. c #88BF57",
"1. c #89BF58",
"2. c #86BC58",
"3. c #8AC157",
"4. c #8AC058",
"5. c #1E6E82",
"6. c #1E7285",
"7. c #1D7589",
"8. c #1D7B8E",
"9. c #1D7D90",
"0. c #267486",
"q. c #2B7182",
"w. c #237786",
"e. c #337886",
"r. c #3A7987",
"t. c #217F92",
"y. c #447B87",
"u. c #6F7D81",
"i. c #22818E",
"p. c #248394",
"a. c #258698",
"s. c #2D8B9B",
"d. c #2B8496",
"f. c #328F9F",
"g. c #3A8796",
"h. c #3592A1",
"j. c #3A97A5",
"k. c #3F9BA8",
"l. c #3799A8",
"z. c #44858D",
"x. c #479987",
"c. c #448C98",
"v. c #4A949F",
"b. c #5C949C",
"n. c #758285",
"m. c #7A8789",
"M. c #76888B",
"N. c #61969D",
"B. c #4B96A1",
"V. c #419DAA",
"C. c #4D99A4",
"Z. c #539CA7",
"A. c #519DA8",
"S. c #609AA1",
"D. c #729DA1",
"F. c #46A2AE",
"G. c #4CA3AE",
"H. c #4BA5B1",
"J. c #4EA8B4",
"K. c #53ACB7",
"L. c #53AEB9",
"P. c #57AAB4",
"I. c #56B1BB",
"U. c #5AB3BD",
"Y. c #60AFB7",
"T. c #62B4BC",
"R. c #5BBBC4",
"E. c #63BCC3",
"W. c #68BBC2",
"Q. c #69C1C7",
"!. c #6DC4CA",
"~. c #6EC9CF",
"^. c #8E8788",
"/. c #918487",
/* pixels */
"                                                E                   ",
"                                    # # #   W ! E % G               ",
"                                E  ......... .( / K H               ",
"                               .%.3.$.] X. .) ( ,.) #               ",
"            g.c.p     p.p.i.Q :.:.=.;.z.2 ( *.<.<. .% G             ",
"            k.W.A.d.H.U.K.J.I.L.g.Z.W.T.c <.1.<.1.*.K P $           ",
"            f.B.T.E.!.!.V.s.E.!.W.!.!.T.s $.<.<.1.>.L L H           ",
"            s.U.!.!.K.h.t.k.Q.!.!.!.!.E.0._ 3.<.1.>.I K L $         ",
"            F.!.!.!.V.a.V.Q.!.G.c.T.!.E.0._ 2.4.,.} Y H I J         ",
"          v.N.E.!.!.E.J.U.!.Z.z m n Y.K.t.t _ #.} Y Y H I K         ",
"          D.f H.!.!.J.p.V.E.b N   k e.a.9.5 , U Y Y I K Y K         ",
"          y.o h.E.!.V.h.E.B.d B Z   s 9.9.q u 2 U Y K P Y K         ",
"        a.b.V a U.!.!.Q.!.c.o D F M e.9.9.8.8.6.2 g L Y I $         ",
"        t y.n.S.E.!.!.!.!.P.M.^./.r.8.8.8.8.9.9.6.y g Y H           ",
"          u s.J.E.I.!.K.!.~.!.R.l.9.8.9.5.w 9.9.9.8.y <             ",
"          7 5.p.C.M.m.n.m.m.u.x q.9.9.8.q 5.9.9.8.9.8.q             ",
"            7 0 i k - B S A C l q.8.w 0 5.9.9.9.8.8.9.7.7           ",
"                5 q p r v v a 6.q 5 q 6.7.7.8.7.8.9.9.8.w           ",
"                p.g.r.u 0 0 0 0 6.8.s.j.w.q q w 8.8.8.9.6.6         ",
"                  j.U.H.9.w 7.8.8.8.s.U.V.0 4 8.9.9.8.9.5.9         ",
"  4.        4.    p.U.E.s.6.8 1 w.a.8.f.J.t , 6.9.9.9.8.8 ]     4.  ",
"4.1.1.4.  1.<.4.&.x.I.U.F.7.1 ' x.K.V.F.G.r ~ e 5.5.5.i j #.4.1.1.4.",
"1.<.1.<.<.<.<.<.&.c 3 t q.y ~ *.-.J.K.G.e.g *.h X . X * +.<.1.<.<.1.",
"<.<.<.<.<.<.<.<.2.` O O + ^ >.[ : > > ; @ +.<.>.O.O.O.%.<.1.<.<.<.<.",
"<.<.1.<.<.1.1.<.<.2.>.>.>.2.1.,.^ & & = +.<.1.1.4.4.4.1.<.1.1.1.<.<.",
"1.1.>.#.<.2.2.#.%.o.>.1.#.>.<.2.,.#.1.4.<.2.1.%.%.>.#.1.1.2.2.<.#.>.",
">.>.} } #.@.+.o.+.} #.#.+.>.@.o.| #.1.>.#.%.#.+.%.| #.<.>.#.>.#.| ,.",
"{ } Y Y T } T Y T Y T Y } { Y Y Y { +.R { +.R { } Y } +.R } +.R T | ",
"Y Y Y Y Y Y Y Y Y Y Y Y Y Y Y Y Y Y Y Y Y Y Y Y Y Y Y Y Y Y Y Y Y Y ",
"Y Y Y Y Y Y Y Y Y Y Y Y Y Y Y Y Y Y Y Y Y Y Y Y Y Y Y Y Y Y Y Y Y Y ",
"Y Y Y Y Y Y Y Y Y Y Y Y Y Y Y Y Y Y Y Y Y Y Y Y Y Y Y Y Y Y Y Y Y Y ",
"Y Y Y Y Y Y Y Y Y Y Y Y Y Y Y Y Y Y Y Y Y Y Y Y Y Y Y Y Y Y Y Y Y Y "
};
