/* XPM */
static char *fe951248d7634de49ba23791f6bb16c9xfkPisfkRM2lAz9G[] = {
/* columns rows colors chars-per-pixel */
"32 32 179 2 ",
"   c None",
".  c #28332D",
"X  c #7A0007",
"o  c #37462D",
"O  c #364E36",
"+  c #197039",
"@  c #26783D",
"#  c #2C763A",
"$  c #455F39",
"%  c #4D6337",
"&  c #49743E",
"*  c #57783B",
"=  c #1C3F48",
"-  c #6A3F45",
";  c #34564E",
":  c #234758",
">  c #3E6F4E",
",  c #3D794C",
"<  c #2C685D",
"1  c #35705E",
"2  c #1B5362",
"3  c #18556B",
"4  c #195E73",
"5  c #22556A",
"6  c #215B6D",
"7  c #205366",
"8  c #215F73",
"9  c #1E6275",
"0  c #1D6578",
"q  c #1D6A7C",
"w  c #11627A",
"e  c #286667",
"r  c #216A7A",
"t  c #2D6E7B",
"y  c #256875",
"u  c #356574",
"i  c #3D6675",
"p  c #366B69",
"a  c #5F494F",
"s  c #415B41",
"d  c #5F555D",
"f  c #6A4D5A",
"g  c #625C5F",
"h  c #467645",
"j  c #415C67",
"k  c #545861",
"l  c #57646C",
"z  c #4A7E63",
"x  c #456371",
"c  c #596F78",
"v  c #766467",
"b  c #981C12",
"n  c #842424",
"m  c #86302E",
"M  c #A32620",
"N  c #AC322F",
"B  c #A03B39",
"V  c #B93330",
"C  c #C42015",
"Z  c #DC312C",
"A  c #34813C",
"S  c #3B8339",
"D  c #3D883A",
"F  c #438B3B",
"G  c #4A8E3A",
"H  c #45863F",
"J  c #4C923B",
"K  c #53943B",
"L  c #5E9C3A",
"P  c #5B983D",
"I  c #609E3B",
"U  c #64A13E",
"Y  c #3B8742",
"T  c #3F8844",
"R  c #2B8274",
"E  c #498B44",
"W  c #4E9447",
"Q  c #5A9848",
"!  c #4D8354",
"~  c #5A8A57",
"^  c #618443",
"/  c #6A9F4A",
"(  c #699D55",
")  c #669A5C",
"_  c #5DA04A",
"`  c #66A342",
"'  c #69A543",
"]  c #6EA945",
"[  c #64A44E",
"{  c #6CAA4F",
"}  c #6EA54B",
"|  c #71AB47",
" . c #76A24D",
".. c #72AD49",
"X. c #79AD4F",
"o. c #77B04C",
"O. c #7AB34E",
"+. c #6DA056",
"@. c #7BAC53",
"#. c #74A955",
"$. c #7EB651",
"%. c #7FB954",
"&. c #548760",
"*. c #4C8A73",
"=. c #4D9A75",
"-. c #529972",
";. c #62A775",
":. c #82B753",
">. c #84BB55",
",. c #88BE57",
"<. c #89BF58",
"1. c #84BA58",
"2. c #89C057",
"3. c #8AC158",
"4. c #1C6D81",
"5. c #1E7286",
"6. c #1C768B",
"7. c #1D7A8E",
"8. c #147489",
"9. c #1C7D91",
"0. c #216F81",
"q. c #227284",
"w. c #2D7282",
"e. c #247B84",
"r. c #28798A",
"t. c #377685",
"y. c #207F91",
"u. c #4B7782",
"i. c #5A7E87",
"p. c #248395",
"a. c #268798",
"s. c #2B8A9B",
"d. c #3D8795",
"f. c #348E9F",
"g. c #398B99",
"h. c #268AA1",
"j. c #3491A0",
"k. c #3A94A3",
"l. c #3C9BA9",
"z. c #3899A7",
"x. c #42818A",
"c. c #49838B",
"v. c #508A81",
"b. c #459481",
"n. c #428B98",
"m. c #53909A",
"M. c #6F8285",
"N. c #73858A",
"B. c #788588",
"V. c #6D8D92",
"C. c #669299",
"Z. c #439EAB",
"A. c #4A9EAA",
"S. c #4498A5",
"D. c #539BA7",
"F. c #59A6AF",
"G. c #4CA6B2",
"H. c #4EA9B3",
"J. c #45A7B4",
"K. c #51A6B1",
"L. c #51AAB4",
"P. c #5CACB5",
"I. c #54AEB9",
"U. c #5BA7B3",
"Y. c #57B0BB",
"T. c #5BB4BD",
"R. c #4CA7AA",
"E. c #62A5AC",
"W. c #61B2BA",
"Q. c #5CBAC3",
"!. c #64BCC4",
"~. c #6ABEC5",
"^. c #6CC5CB",
"/. c #6BC6CC",
"(. c #72C8CD",
"). c #6FCAD0",
"_. c #71CAD0",
"`. c #8D8687",
"'. c #918587",
/* pixels */
"                                              Y                 ",
"                                  @ @     Y T A A               ",
"                              Y [ { { { { [ Q E F A             ",
"                            _ %.2.#.( { [ W #.O.D +             ",
"            n.x.      p.p.R =.-.&.v.x., [ >.3.$.E #             ",
"            I.W.d.k.Y.Y.H.I.Y.d.D.!.U.~ 3.,.2.,.Q G D           ",
"            k.F.!.^.^.L.a.T.^.~.^.^.U.z 1.3.,.,.` D F           ",
"            Z.^.(.T.l.p.j.!.^.^.^.^.T.y +.3.<.,.] F J S         ",
"          s.T.(.^.Y.s.j.!.(.L.g.W.(.T.q ) 3.<.O.U G G G         ",
"          m.E./.^.^.I.I.^.F.l g u.W.H.8.p ( o.U I G G J         ",
"          M.c Q.(.T.s.f.!.c.n   j t.a.6.3 > L I P F K K         ",
"        a.c f J._.Y.s.T.K.d b M   t.9.6.0 y E I K F L G         ",
"        j.N.X l.^.^.!.(.A.- C Z v r.9.7.7.6.y h H P L S         ",
"        r i.N.P.^.^.^.^.T.V.`.'.t.9.7.7.7.9.7.q 1 K J           ",
"        7 q.z.T.T.!.T.!.)./.Q.z.9.9.7.q 5.p.9.9.5.< #           ",
"          8 6.j.C.B.B.B.B.M.l w.9.9.6.9 5.9.7.7.9.5.3           ",
"            6 r u a m N V B k q.7.q 9 5.9.9.9.7.9.9.9           ",
"              5 9 r u x x i q.0 4 q 5.6.7.7.6.9.9.9.5.3         ",
"                g.d.t 9 9 9 9 5.7.f.k.4.9 0 5.9.7.9.7.6         ",
"                h.I.I.s.4.5.7.7.7.j.T.k.2 y 9.9.7.9.r.3         ",
"  <.            e.G.!.S.8.6 < e.a.7.k.A.2 e 7.9.9.y.w ~     2.  ",
"3.<.<.3.3.<.3.,.;.R.Q.H.p.e P b.I.Z.G.S., ! 4 5.0.4.p } 2.<.<.3.",
"<.,.<.,.2.,.2.<.) 2 5 w.r ! X.*.K.I.Z.t Q @.s . . O / ,.<.,.,.<.",
",.,.,.,.,.2.,.3.#.$ o O h $.+.; : : = & $.,.@. . .X.,.3.,.,.,.,.",
",.,.<.,.,.<.<.,.,.>.:.:.>.<.,.^ % % * O.3.<.<.3.3.<.,.<.<.<.,.,.",
"<.<.$.O.<.,.:.O.o.o.<.:.$.,.,.>.O.<.3.,.,.>.O.:.$.>.3.,.,.<.$.$.",
">.:.U ] O...| ..] ..O.| $.O.| ] O.<.$.O.:.o.o.o.| ,.>.O.$.O.] >.",
"` ' L L U ' L I L I L ` ' I L L ` | U ' | U ' U I | ' U | ` L ] ",
"L L L L L L L L L L L L L L L L L L L L L L L L L L L L L L L L ",
"L L L L L L L L L L L L L L L L L L L L L L L L L L L L L L L L ",
"L L L L L L L L L L L L L L L L L L L L L L L L L L L L L L L L ",
"L L L L L L L L L L L L L L L L L L L L L L L L L L L L L L L L "
};
