/* XPM */
static char *_9c0aab4b5e3491d94536fdf1754e047V072WYgcoRVn9TEv[] = {
/* columns rows colors chars-per-pixel */
"32 32 163 2 ",
"   c None",
".  c #030506",
"X  c #030708",
"o  c #050A0B",
"O  c #080E0E",
"+  c #090F10",
"@  c #081010",
"#  c #0A1519",
"$  c #0C1A1E",
"%  c #111D1E",
"&  c #0D1C21",
"*  c #111E20",
"=  c #142325",
"-  c #162628",
";  c #12282F",
":  c #1A2D2F",
">  c #1C3134",
",  c #19363F",
"<  c #1B3C45",
"1  c #203D43",
"2  c #274347",
"3  c #24454D",
"4  c #28474D",
"5  c #2B494D",
"6  c #234B57",
"7  c #244D5A",
"8  c #26515E",
"9  c #2C545C",
"0  c #305257",
"q  c #32555A",
"w  c #34595E",
"e  c #265461",
"r  c #2A5A67",
"t  c #2C5B68",
"y  c #365F66",
"u  c #385E64",
"i  c #2D616F",
"p  c #376067",
"a  c #3A6267",
"s  c #36616A",
"d  c #3A6469",
"f  c #2F6574",
"g  c #326472",
"h  c #356976",
"j  c #3D6B72",
"k  c #316A7C",
"l  c #427177",
"z  c #437278",
"x  c #336F81",
"c  c #347081",
"v  c #3E7682",
"b  c #37798D",
"n  c #3A7B8E",
"m  c #477A81",
"M  c #497C83",
"N  c #3D859B",
"B  c #438495",
"V  c #4C8891",
"C  c #428A9F",
"Z  c #518A91",
"A  c #55939B",
"S  c #59969C",
"D  c #428EA6",
"F  c #4490A7",
"G  c #4F97A9",
"H  c #5495A1",
"J  c #5997A0",
"K  c #5198A6",
"L  c #5B9BA3",
"P  c #5399A9",
"I  c #5E9FA8",
"U  c #5EA0A7",
"Y  c #5EA1AA",
"T  c #4CA3BE",
"R  c #56AABF",
"E  c #5EACBC",
"W  c #63A9B2",
"Q  c #69B1BB",
"!  c #5CADC0",
"~  c #51AFCB",
"^  c #54B6D3",
"/  c #5BBAD5",
"(  c #56BBD9",
")  c #5ABEDB",
"_  c #67B4C1",
"`  c #6CB7C1",
"'  c #6CB8C2",
"]  c #66B9C9",
"[  c #6DBECA",
"{  c #70BFCA",
"}  c #62BED5",
"|  c #59C0DF",
" . c #72C2CB",
".. c #6CC5D7",
"X. c #65C5DD",
"o. c #6DC9DD",
"O. c #75C6D0",
"+. c #75CBD8",
"@. c #79CDD8",
"#. c #76D0DE",
"$. c #7CD3DE",
"%. c #5BC4E3",
"&. c #5DCAEB",
"*. c #67CBE3",
"=. c #68CBE4",
"-. c #62CCEA",
";. c #6BD2EC",
":. c #7DD6E3",
">. c #7FD8E3",
",. c #71D6ED",
"<. c #7FDEEE",
"1. c #62D3F5",
"2. c #6ED9F3",
"3. c #64D6F9",
"4. c #67D8F9",
"5. c #6BDBF9",
"6. c #73DDF5",
"7. c #72DFFA",
"8. c #7FE3F5",
"9. c #75E1FB",
"0. c #7BE5FB",
"q. c #7FE8FC",
"w. c #81DAE6",
"e. c #86E4EF",
"r. c #85E2EF",
"t. c #86E3F0",
"y. c #85E7F5",
"u. c #84E4F2",
"i. c #8AEAF5",
"p. c #8AE9F6",
"a. c #80E8FB",
"s. c #84E8F8",
"d. c #84EBFD",
"f. c #87ECFD",
"g. c #86EDFD",
"h. c #87EDFD",
"j. c #87EFFF",
"k. c #86ECFD",
"l. c #8BECF9",
"z. c #8AEEF9",
"x. c #89EEFB",
"c. c #8BEEFA",
"v. c #8CECF9",
"b. c #8CEDF9",
"n. c #8DEFF9",
"m. c #8BEEFC",
"M. c #89EEFC",
"N. c #8CEFFC",
"B. c #8BEEFC",
"V. c #8DF0F9",
"C. c #8EF0F9",
"Z. c #8DF0FB",
"A. c #8EF1FC",
"S. c #8EF1FE",
"D. c #8FF1FE",
"F. c #8FF2FF",
"G. c #8EF2FE",
"H. c #8CF0FE",
"J. c #8EF1FE",
"K. c #90F3F9",
"L. c #91F5FF",
"P. c #91F6FF",
"I. c #91F6FF",
/* pixels */
"  @ = - - - - - - - - - - - % o o % - - - - - - - - - - - = +   ",
"O d Q  . .[ ] ] ] [ {  . .[ H 1 1 H ] ] ] ] ] ] ] ] ] ] ] E s O ",
"% I r.Z.S.x.9.5.4.5.a.N.S.x.o.g f ) 3.4.4.4.4.4.4.4.4.4.3.-.D $ ",
"* Y e.S.S.S.g.7.3.3.5.q.S.N.$.j f ( 1.3.3.3.3.3.3.3.3.3.3.&.D & ",
"* Y t.S.S.S.S.g.7.3.3.5.q.m.$.z h ) 1.3.3.3.3.3.3.3.3.3.3.&.D $ ",
"* Y t.S.S.S.S.S.g.7.3.3.5.0.$.z z o.5.3.3.3.3.3.3.3.3.3.3.&.D $ ",
"* Y t.S.S.S.S.S.S.g.9.3.3.5.o.z z $.0.5.3.3.3.3.3.3.3.3.3.&.D $ ",
"* Y t.S.S.S.S.S.S.S.g.9.3.3.) h z >.N.q.5.3.3.3.3.3.3.3.3.&.D $ ",
"* Y r.x.v.v.v.v.v.v.v.s.6.1.( f j $.x.x.0.2.1.1.1.1.1.1.1.%.D & ",
"# Z  .@.@.@.@.@.@.@.@.@.+.} T 8 9 E @.@.@.../ ^ ^ ^ ^ ^ ^ ~ b # ",
". : 0 w w w w q q q w w w 9 3 & & 3 w w w w 9 6 7 7 8 8 8 6 ; . ",
"o 5 Z J J J A 5 = a A J J J J J A H H H J A a = 4 A H H H V 4 o ",
"$ J r.v.Z.Z.K.S w Q i.Z.Z.Z.Z.x.0.5.5.5.9.y.Q w A 0.5.5.5.-.C # ",
"& P r.S.S.S.L.I d ` v.S.S.S.S.S.g.9.3.3.4.6._ d I g.5.3.3.&.D & ",
"$ F ,.m.S.S.L.U d ' v.S.S.S.S.S.S.g.9.3.3.1.R s U L.k.5.3.&.D $ ",
"$ D -.9.m.S.L.U d ' v.S.S.S.S.S.S.S.g.9.3.1.T t U L.S.g.5.&.D $ ",
"$ D &.3.9.m.L.U d ' v.S.S.S.S.S.S.S.S.g.9.1.T t K H.S.S.k.;.F $ ",
"$ D &.3.3.9.S.I d ' v.S.S.S.S.S.S.S.S.S.m.6.T t D 9.g.S.S.u.G & ",
"& D &.1.3.3.0.L d ' l.N.S.S.S.S.S.S.S.S.N.y.! r D 4.7.k.N.r.Y * ",
"# N ( %.%.%.%.n 9 W >.w.w.w.w.w.w.w.w.w.w.>.W 9 b %.%.*.:.$.A $ ",
"X < k x x x k , * w m M M M M m m M M M M m w * , k x c v z 2 o ",
". > y j j j j j j j j j j j 0 = = 0 j j j j j j j j j j j p > . ",
"# B =.2.2.2.2.2.2.2.6.y.i.i.O.u u O.i.i.i.i.i.i.i.i.8.6.2.=.B # ",
"$ D &.3.3.3.3.3.3.3.4.9.m.N.$.l l $.N.S.S.S.S.S.S.S.m.9.3.&.D $ ",
"$ D &.3.3.3.3.3.3.3.3.3.9.k.$.z z $.N.S.S.S.S.S.S.S.S.m.9.&.D $ ",
"$ D &.3.3.3.3.3.3.3.3.3.4.9.#.z z $.S.S.S.S.S.S.S.S.S.S.m.,.F $ ",
"$ D &.3.3.3.3.3.3.3.3.3.3.3.X.j z $.S.S.S.S.S.S.S.S.S.S.S.r.P & ",
"$ D &.3.3.3.3.3.3.3.3.3.3.1.) h z $.S.S.S.S.S.S.S.S.S.S.S.t.Y * ",
"& D &.3.3.3.3.3.3.3.3.3.3.1.( f j $.N.S.S.S.S.S.S.S.S.S.N.t.Y * ",
"$ C | &.&.&.&.&.&.&.&.&.&.&.^ i i } <.e.r.r.r.r.r.r.r.r.r.>.J % ",
"O e N D D D D D D D D D D D b , , b G I I I I I I I I I I J u O ",
"  O $ $ $ $ $ $ $ $ $ $ $ $ # X X # $ * * * % % % * * * % $ O   "
};
